<mxfile host="app.diagrams.net" modified="2024-03-12T14:53:27.206Z" agent="Mozilla/5.0 (Macintosh; Intel Mac OS X 10_15_7) AppleWebKit/537.36 (KHTML, like Gecko) Chrome/118.0.0.0 Safari/537.36" etag="FIRpgFIJCbH5gfusyjee" version="24.0.2" type="github">
  <diagram name="第 1 页" id="FSj_e0Sj-Y8vh16fAibe">
    <mxGraphModel dx="1085" dy="641" grid="1" gridSize="10" guides="1" tooltips="1" connect="1" arrows="1" fold="1" page="1" pageScale="1" pageWidth="827" pageHeight="1169" math="0" shadow="0">
      <root>
        <mxCell id="0" />
        <mxCell id="1" parent="0" />
        <mxCell id="NivaVbB2wvdl54Iz5tC5-8" style="edgeStyle=orthogonalEdgeStyle;rounded=0;orthogonalLoop=1;jettySize=auto;html=1;exitX=0;exitY=0.5;exitDx=0;exitDy=0;entryX=1;entryY=0.5;entryDx=0;entryDy=0;" edge="1" parent="1" source="NivaVbB2wvdl54Iz5tC5-1" target="NivaVbB2wvdl54Iz5tC5-5">
          <mxGeometry relative="1" as="geometry">
            <Array as="points">
              <mxPoint x="400" y="485" />
              <mxPoint x="400" y="380" />
              <mxPoint x="360" y="380" />
            </Array>
          </mxGeometry>
        </mxCell>
        <mxCell id="NivaVbB2wvdl54Iz5tC5-12" style="edgeStyle=orthogonalEdgeStyle;rounded=0;orthogonalLoop=1;jettySize=auto;html=1;exitX=0;exitY=0.5;exitDx=0;exitDy=0;entryX=1;entryY=0.5;entryDx=0;entryDy=0;" edge="1" parent="1" source="NivaVbB2wvdl54Iz5tC5-1" target="NivaVbB2wvdl54Iz5tC5-11">
          <mxGeometry relative="1" as="geometry" />
        </mxCell>
        <mxCell id="NivaVbB2wvdl54Iz5tC5-15" style="edgeStyle=orthogonalEdgeStyle;rounded=0;orthogonalLoop=1;jettySize=auto;html=1;exitX=0;exitY=0.5;exitDx=0;exitDy=0;entryX=1;entryY=0.5;entryDx=0;entryDy=0;" edge="1" parent="1" source="NivaVbB2wvdl54Iz5tC5-1" target="NivaVbB2wvdl54Iz5tC5-13">
          <mxGeometry relative="1" as="geometry" />
        </mxCell>
        <mxCell id="NivaVbB2wvdl54Iz5tC5-16" style="edgeStyle=orthogonalEdgeStyle;rounded=0;orthogonalLoop=1;jettySize=auto;html=1;exitX=0;exitY=0.5;exitDx=0;exitDy=0;entryX=1;entryY=0.5;entryDx=0;entryDy=0;" edge="1" parent="1" source="NivaVbB2wvdl54Iz5tC5-1" target="NivaVbB2wvdl54Iz5tC5-3">
          <mxGeometry relative="1" as="geometry" />
        </mxCell>
        <mxCell id="NivaVbB2wvdl54Iz5tC5-19" style="edgeStyle=orthogonalEdgeStyle;rounded=0;orthogonalLoop=1;jettySize=auto;html=1;exitX=0;exitY=0.5;exitDx=0;exitDy=0;entryX=1;entryY=0.5;entryDx=0;entryDy=0;" edge="1" parent="1" source="NivaVbB2wvdl54Iz5tC5-1" target="NivaVbB2wvdl54Iz5tC5-17">
          <mxGeometry relative="1" as="geometry" />
        </mxCell>
        <mxCell id="NivaVbB2wvdl54Iz5tC5-1" value="vue的优点" style="rounded=0;whiteSpace=wrap;html=1;" vertex="1" parent="1">
          <mxGeometry x="440" y="465" width="80" height="40" as="geometry" />
        </mxCell>
        <mxCell id="NivaVbB2wvdl54Iz5tC5-3" value="响应式" style="ellipse;whiteSpace=wrap;html=1;" vertex="1" parent="1">
          <mxGeometry x="280" y="240" width="80" height="50" as="geometry" />
        </mxCell>
        <mxCell id="NivaVbB2wvdl54Iz5tC5-4" value="1. 解耦了数据和视图。&lt;div&gt;&lt;br&gt;&lt;/div&gt;&lt;div&gt;2. 提供了方便的数据双向绑定途径。&lt;br&gt;&lt;div&gt;&lt;span style=&quot;white-space: pre;&quot;&gt;&#x9;&lt;/span&gt;&lt;br&gt;&lt;/div&gt;&lt;/div&gt;" style="text;html=1;align=left;verticalAlign=top;whiteSpace=wrap;rounded=0;" vertex="1" parent="1">
          <mxGeometry x="110" y="220" width="160" height="90" as="geometry" />
        </mxCell>
        <mxCell id="NivaVbB2wvdl54Iz5tC5-5" value="组件化" style="ellipse;whiteSpace=wrap;html=1;" vertex="1" parent="1">
          <mxGeometry x="280" y="360" width="80" height="50" as="geometry" />
        </mxCell>
        <mxCell id="NivaVbB2wvdl54Iz5tC5-9" value="3. 组件化帮助我们减少重复的开发，提高我们的工作效率。&lt;div&gt;&lt;br&gt;&lt;/div&gt;&lt;div&gt;4. 组件化方便我们在需求更改的时候快速更新页面。&lt;/div&gt;" style="text;html=1;align=left;verticalAlign=top;whiteSpace=wrap;rounded=0;" vertex="1" parent="1">
          <mxGeometry x="110" y="340" width="160" height="140" as="geometry" />
        </mxCell>
        <mxCell id="NivaVbB2wvdl54Iz5tC5-10" value="5. 指令系统可以帮助我们快速开发页面。&lt;div&gt;&lt;br&gt;&lt;/div&gt;" style="text;html=1;align=left;verticalAlign=top;whiteSpace=wrap;rounded=0;" vertex="1" parent="1">
          <mxGeometry x="110" y="465" width="160" height="40" as="geometry" />
        </mxCell>
        <mxCell id="NivaVbB2wvdl54Iz5tC5-11" value="指令" style="ellipse;whiteSpace=wrap;html=1;" vertex="1" parent="1">
          <mxGeometry x="280" y="460" width="80" height="50" as="geometry" />
        </mxCell>
        <mxCell id="NivaVbB2wvdl54Iz5tC5-13" value="状态管理" style="ellipse;whiteSpace=wrap;html=1;" vertex="1" parent="1">
          <mxGeometry x="280" y="570" width="80" height="50" as="geometry" />
        </mxCell>
        <mxCell id="NivaVbB2wvdl54Iz5tC5-14" value="&lt;div&gt;6. 我们可以使用统一的状态管理工具管理数据状态，在多个组件中共享数据。&lt;/div&gt;" style="text;html=1;align=left;verticalAlign=top;whiteSpace=wrap;rounded=0;" vertex="1" parent="1">
          <mxGeometry x="110" y="570" width="160" height="50" as="geometry" />
        </mxCell>
        <mxCell id="NivaVbB2wvdl54Iz5tC5-17" value="虚拟DOM" style="ellipse;whiteSpace=wrap;html=1;" vertex="1" parent="1">
          <mxGeometry x="280" y="660" width="80" height="50" as="geometry" />
        </mxCell>
        <mxCell id="NivaVbB2wvdl54Iz5tC5-18" value="7. 虚拟DOM可以直接减少我们操作真是DOM的次数，提高页面性能。&lt;div&gt;&lt;br&gt;&lt;/div&gt;&lt;div&gt;8. 方便实现跨平台。&lt;/div&gt;&lt;div&gt;&lt;span style=&quot;white-space: pre;&quot;&gt;&#x9;&lt;/span&gt;基于虚拟DOM，我们可以通过编写不同的渲染器来实现跨平台开发。&lt;br&gt;&lt;/div&gt;&lt;div&gt;&lt;br&gt;&lt;/div&gt;" style="text;html=1;align=left;verticalAlign=top;whiteSpace=wrap;rounded=0;" vertex="1" parent="1">
          <mxGeometry x="110" y="660" width="160" height="140" as="geometry" />
        </mxCell>
      </root>
    </mxGraphModel>
  </diagram>
</mxfile>
